<?xml version="1.0" encoding="utf-8"?>
<!-- Generator: Adobe Illustrator 18.0.0, SVG Export Plug-In . SVG Version: 6.00 Build 0)  -->
<!DOCTYPE svg PUBLIC "-//W3C//DTD SVG 1.1//EN" "http://www.w3.org/Graphics/SVG/1.1/DTD/svg11.dtd">
<svg version="1.1" id="Layer_1" xmlns="http://www.w3.org/2000/svg" xmlns:xlink="http://www.w3.org/1999/xlink" x="0px" y="0px"
	 viewBox="-589 335.9 100 51.1" enable-background="new -589 335.9 100 51.1" xml:space="preserve">
<circle fill="#FFFFFF" cx="-503" cy="378.8" r="8.2"/>
<circle fill="#FFFFFF" cx="-565.5" cy="378.8" r="8.2"/>
<rect x="-589" y="335.9" fill="#FFFFFF" width="67.6" height="32.3"/>
<path fill="#FFFFFF" d="M-555.1,378.8h41.7c0-5.8,4.7-10.4,10.4-10.4c5.8,0,10.4,4.7,10.4,10.4h1.4c1.1,0,2.1-0.9,2.1-2.1v-4v-11.2
	c-1.7-4.1-6.4-15.9-6.4-15.9l-21.6-1.6v26.6h-42.1C-556.7,372.4-555.1,375.4-555.1,378.8z M-508.7,359.6v-11.3l11.8,0.9l4.8,12.5
	L-508.7,359.6L-508.7,359.6z"/>
<path fill="#FFFFFF" d="M-589,376.5l6.2,2.2h4.3h2.4c0-3.4,1.6-6.3,4-8.2h-17L-589,376.5z"/>
</svg>
