<?xml version="1.0" encoding="utf-8"?>
<!-- Generator: Adobe Illustrator 18.0.0, SVG Export Plug-In . SVG Version: 6.00 Build 0)  -->
<!DOCTYPE svg PUBLIC "-//W3C//DTD SVG 1.1//EN" "http://www.w3.org/Graphics/SVG/1.1/DTD/svg11.dtd">
<svg version="1.1" id="Layer_1" xmlns="http://www.w3.org/2000/svg" xmlns:xlink="http://www.w3.org/1999/xlink" x="0px" y="0px"
	 viewBox="-589 311 100 100" enable-background="new -589 311 100 100" xml:space="preserve">
<path fill="#FFFFFF" d="M-574.5,394.1l24.3-14l-2.2-3.7l-24.2,14L-574.5,394.1z M-500.1,335.9c-1.6-2.7-3.5-4.9-6.2-6.2
	c-9-4.4-25.6-0.5-45.3,10.8c-0.1,0.1-0.4,0.3-0.4,0.3c-19.8,11.3-31.4,23.8-32,33.7c-0.2,3,0.7,5.9,2.3,8.6v0.1
	c0.6,1.1,1.4,2,2.2,2.8l24.8-14.3c-0.4-1.1-0.8-2.3-1.5-3.4c-1.3-2.4-3.4-4.2-5.6-5.5c4.7-3.9,10.2-7.8,16.4-11.4
	c6-3.4,12-6.2,17.6-8.4c0,2.6,0.7,5.3,2.1,7.7c0.5,1.1,1.4,2.1,2.2,3l24.8-14.3C-498.9,338.1-499.5,337-500.1,335.9L-500.1,335.9z
	 M-520.5,357.9l2.2,3.7l24.3-14l-2.2-3.8L-520.5,357.9z"/>
</svg>
